<svg width="286" height="286" viewBox="0 0 286 286" fill="none" xmlns="http://www.w3.org/2000/svg">
<circle cx="143" cy="143" r="143" fill="#7C3AED"/>
<path d="M126.5 196.5C125.333 198.167 119.4 201.5 105 201.5H46V85.5L112 86.5C129 88.5 163 103.4 163 147H194.5C199.833 145.5 210.5 139.3 210.5 126.5C210.5 113.7 198.5 109.167 192.5 108.5H163C157.5 100.667 145.1 85 139.5 85H203.5C214.667 88.3333 237 100.6 237 123C237 145.4 223.333 159 216.5 163L247.5 201.5H211L189 169.5H163V201.5H136V134C133 125.5 123.2 108.5 108 108.5H72.5V179.5H108C112 178.333 121.3 174.7 126.5 169.5V196.5Z" fill="white"/>
</svg>
